# xmcd
#
# Track frame offsets:
#	150
#	18749
#	39585
#	54173
#	70411
#	92010
#	108734
#	130734
#	146631
#	160967
#	175441
#
# Disc length: 2642 seconds
#
# Revision: 0
# Processed by: cddbd v1.4PL0 Copyright (c) Steve Scherf et al.
# Submitted via: EasyCDDAExtractor 5.0.2.1
#
DISCID=9c0a500b
DTITLE=Paul Irwin - I Believe
DYEAR=2002
DGENRE=Gospel
TTITLE0=Precious Old Story Of Love
TTITLE1=Who Am I?
TTITLE2=I Believe
TTITLE3=Great Eternal Daylight
TTITLE4=That's What Grace Is For
TTITLE5=I'd Like To Say It Again
TTITLE6=Blessed Assurance
TTITLE7=Living By Faith
TTITLE8=Forgiven, Forgotten, Forever, Amen
TTITLE9=I Wonder Where They Go?
TTITLE10=Remind Me Of Calvary
EXTD=
EXTT0=
EXTT1=
EXTT2=
EXTT3=
EXTT4=
EXTT5=
EXTT6=
EXTT7=
EXTT8=
EXTT9=
EXTT10=
PLAYORDER=
